# xmcd CD database file
#
# Track frame offsets:
#	150
#	19997
#	34420
#	51327
#	68260
#	86230
#	100922
#	118980
#	140050
#	154970
#	171885
#
# Disc length: 2499 seconds
#
# Revision: 0
# Processed by: cddbd v1.5.1PL0 Copyright (c) Steve Scherf et al.
# Submitted via: CDex 1.51
#
DISCID=9f09c10b
DTITLE=矢沢永吉 - THE BORDER EIKICHI YAZAWA THE BEST SELECTION
DYEAR=1985
DGENRE=Rock
TTITLE0=The Border
TTITLE1=Don't Come To Close
TTITLE2=抱かれたい、もう一度
TTITLE3=Rockin' My Heart
TTITLE4=It's Just Rock'n Roll
TTITLE5=This Is a Song For Coca-Cola
TTITLE6=Yes, My Love
TTITLE7=Without You
TTITLE8=You
TTITLE9=ミスティ
TTITLE10=Last Christmas Eve
EXTD=YEAR: 1985
EXTT0=
EXTT1=
EXTT2=
EXTT3=
EXTT4=
EXTT5=
EXTT6=
EXTT7=
EXTT8=
EXTT9=
EXTT10=
PLAYORDER=
